<svg width="44" height="44" viewBox="0 0 44 44" fill="none" xmlns="http://www.w3.org/2000/svg">
<path d="M12.8334 40.3333H7.33341C6.36095 40.3333 5.42832 39.947 4.74069 39.2594C4.05306 38.5718 3.66675 37.6391 3.66675 36.6667V23.8333C3.66675 22.8609 4.05306 21.9282 4.74069 21.2406C5.42832 20.553 6.36095 20.1667 7.33341 20.1667H12.8334M25.6667 16.5V9.16667C25.6667 7.70798 25.0873 6.30903 24.0558 5.27758C23.0244 4.24613 21.6254 3.66667 20.1667 3.66667L12.8334 20.1667V40.3333H33.5134C34.3977 40.3433 35.2558 40.0334 35.9296 39.4607C36.6034 38.888 37.0475 38.091 37.1801 37.2167L39.7101 20.7167C39.7898 20.1912 39.7544 19.6546 39.6062 19.1441C39.458 18.6337 39.2006 18.1615 38.8518 17.7604C38.503 17.3594 38.0712 17.0389 37.5863 16.8212C37.1014 16.6036 36.5749 16.494 36.0434 16.5H25.6667Z" stroke="#CC3333" stroke-width="3.66667" stroke-linecap="round" stroke-linejoin="round"/>
</svg>
