<svg width="53" height="28" viewBox="0 0 53 28" fill="none" xmlns="http://www.w3.org/2000/svg">
<path d="M3.23582 5.25821C3.23582 3.88298 3.04707 2.87179 2.66955 2.22463C2.29204 1.5505 1.53701 1.21343 0.404478 1.21343H0V0H16.9476C19.2397 0 20.3857 1.07861 20.3857 3.23582V6.67388H19.1722C19.1722 4.97507 18.7408 3.74816 17.8779 2.99313C17.042 2.21114 15.7881 1.82015 14.1163 1.82015H8.49403V12.1343H17.3925V13.9545H8.49403V26.6955H3.23582V5.25821Z" fill="#CC3333"/>
<path d="M24.3925 12.3366C23.7454 10.8265 23.1386 9.76139 22.5724 9.14119C22.0061 8.521 21.3589 8.18393 20.6309 8.13V7.36149L22.5724 7.2806C24.3521 7.2806 25.7947 7.64463 26.9003 8.37269C28.0328 9.10075 29.044 10.422 29.9339 12.3366L33.3719 20.0621L36.0819 13.5904L35.5157 12.3366C34.8685 10.8804 34.2618 9.82881 33.6955 9.18164C33.1292 8.53448 32.5495 8.18393 31.9563 8.13V7.36149L33.4933 7.2806C35.3269 7.2806 36.8639 7.65811 38.1043 8.41313C39.3447 9.14119 40.3964 10.449 41.2592 12.3366L44.9804 20.4666L49.9151 7.68507H52.0588L44.6164 27.1H42.7558L37.4976 15.7342L32.8057 27.1H30.9855L24.3925 12.3366Z" fill="#CC3333"/>
</svg>
