<svg width="118" height="118" viewBox="0 0 118 118" fill="none" xmlns="http://www.w3.org/2000/svg">
<g clip-path="url(#clip0)">
<g clip-path="url(#clip1)">
<path d="M69.4402 14.7348L69.3981 14.7131C69.6149 14.5329 69.7883 14.3184 69.9155 14.0716C70.4215 13.0899 70.0592 11.7716 68.9935 10.6983C68.9701 10.6603 68.9379 10.6286 68.8994 10.6059C68.7932 10.5042 68.6804 10.4049 68.5634 10.3101C67.8914 9.76556 67.6753 8.8537 68.0379 8.09258C68.0468 8.07405 68.0559 8.05558 68.0654 8.03717C68.1022 7.9657 68.1062 7.88167 68.0761 7.80708C68.0461 7.73246 67.9852 7.67437 67.909 7.64858C67.4606 7.49519 66.9846 7.4906 66.5323 7.63523C65.871 7.84668 65.3485 8.36495 65.1249 9.01548C63.9375 9.0033 62.9924 9.46973 62.5715 10.2865C62.4443 10.5333 62.3702 10.7989 62.3492 11.0801L62.3071 11.0583C62.1712 10.9883 62.0043 11.0417 61.9343 11.1775C61.8643 11.3134 61.9177 11.4803 62.0535 11.5503L62.2642 11.6589L58.063 21.5264C58.0063 21.6598 58.062 21.8144 58.1909 21.8808L63.0142 24.3668C63.143 24.4332 63.3013 24.3889 63.3769 24.2653L68.9761 15.1183L69.1868 15.2268C69.3226 15.2969 69.4895 15.2435 69.5595 15.1077C69.6295 14.9718 69.5761 14.8048 69.4402 14.7348ZM63.0634 10.5399C63.3761 9.93313 64.1015 9.58014 65.0331 9.56899C65.0392 9.81154 65.1038 10.146 65.3608 10.4345C65.3841 10.4606 65.4112 10.4813 65.4406 10.4964C65.5394 10.5474 65.6635 10.5354 65.7515 10.4571C65.8656 10.3554 65.8757 10.1805 65.774 10.0664C65.5138 9.77418 65.5959 9.3834 65.6005 9.36253C65.6006 9.36224 65.6006 9.362 65.6007 9.36171C65.6007 9.36152 65.6008 9.36133 65.6008 9.36113C65.7297 8.79742 66.1512 8.33808 66.7007 8.16235C66.942 8.08521 67.1921 8.06482 67.4374 8.10106C67.1146 9.03781 67.4146 10.0916 68.2149 10.74C68.3316 10.8346 68.4435 10.9341 68.5477 11.0357C68.5494 11.0374 68.5512 11.0391 68.5529 11.0407C68.555 11.0428 68.5571 11.0449 68.5592 11.047C69.4839 11.9548 69.8231 13.0425 69.4234 13.818C69.2959 14.0654 69.1024 14.2705 68.847 14.4291L62.9001 11.364C62.8811 11.0639 62.9359 10.7873 63.0634 10.5399ZM68.0252 15.6113L62.4141 12.7193L62.7574 11.9132L68.4827 14.864L68.0252 15.6113ZM60.1686 17.9934L65.0325 20.5003L64.7774 20.9171L59.9772 18.4431L60.1686 17.9934ZM60.386 17.4828L60.5775 17.0331L65.5774 19.6102L65.3223 20.027L60.386 17.4828ZM60.7949 16.5225L60.9865 16.0725L66.1225 18.7196L65.8671 19.1368L60.7949 16.5225ZM61.2039 15.5619L62.1967 13.2299L67.7355 16.0847L66.4122 18.2464L61.2039 15.5619ZM58.6728 21.5066L59.7598 18.9537L64.4877 21.3904L63.0391 23.757L58.6728 21.5066Z" fill="white" fill-opacity="0.1"/>
</g>
<g clip-path="url(#clip2)">
<path d="M52.4946 104.036L52.5271 104.001C52.6408 104.259 52.7994 104.485 53.0018 104.675C53.8067 105.431 55.1738 105.445 56.4986 104.715C56.5415 104.703 56.5808 104.681 56.6133 104.65C56.7402 104.576 56.8667 104.495 56.99 104.408C57.6982 103.912 58.6343 103.954 59.2665 104.512C59.2819 104.526 59.2972 104.54 59.3123 104.554C59.3709 104.609 59.4506 104.636 59.5306 104.627C59.6106 104.619 59.6831 104.576 59.7289 104.51C59.9995 104.121 60.1347 103.665 60.1199 103.19C60.0982 102.496 59.7435 101.851 59.1794 101.458C59.5172 100.319 59.3284 99.2825 58.6587 98.6534C58.4563 98.4632 58.2213 98.319 57.9567 98.2217L57.9892 98.1871C58.0938 98.0757 58.0883 97.9006 57.977 97.7959C57.8656 97.6913 57.6904 97.6968 57.5858 97.8082L57.4235 97.9809L49.0896 91.2307C48.977 91.1395 48.8131 91.1506 48.7138 91.2563L44.9985 95.2111C44.8992 95.3168 44.8983 95.4811 44.9964 95.5878L52.2534 103.484L52.0911 103.657C51.9865 103.768 51.992 103.944 52.1034 104.048C52.2147 104.153 52.39 104.147 52.4946 104.036ZM58.2799 99.0567C58.7774 99.5241 58.9176 100.319 58.6724 101.217C58.4375 101.157 58.0982 101.127 57.7501 101.295C57.7186 101.31 57.6913 101.33 57.6687 101.354C57.5925 101.435 57.5699 101.558 57.6211 101.664C57.6875 101.802 57.8529 101.86 57.9906 101.793C58.343 101.623 58.6962 101.81 58.715 101.82C58.7153 101.82 58.7155 101.82 58.7158 101.82C58.7159 101.82 58.7161 101.82 58.7163 101.82C59.2229 102.099 59.5488 102.631 59.5668 103.207C59.5747 103.46 59.5256 103.707 59.4234 103.932C58.6113 103.365 57.5157 103.364 56.6723 103.955C56.5493 104.041 56.4229 104.122 56.2966 104.194C56.2945 104.195 56.2924 104.196 56.2904 104.198C56.2877 104.199 56.2852 104.2 56.2826 104.202C55.1557 104.842 54.0166 104.869 53.3807 104.272C53.1779 104.081 53.0339 103.839 52.9515 103.55L57.5324 98.6733C57.8261 98.7376 58.077 98.8662 58.2799 99.0567ZM52.0405 102.435L56.3627 97.8338L57.0435 98.3853L52.6334 103.08L52.0405 102.435ZM51.9084 94.2258L48.1618 98.214L47.831 97.8541L51.5286 93.9182L51.9084 94.2258ZM52.3396 94.5751L52.7194 94.8828L48.868 98.9824L48.5372 98.6226L52.3396 94.5751ZM53.1506 95.2321L53.5307 95.5399L49.5745 99.7512L49.2435 99.391L53.1506 95.2321ZM53.9619 95.8892L55.9314 97.4844L51.665 102.026L49.95 100.16L53.9619 95.8892ZM48.9412 91.8225L51.0973 93.5689L47.4555 97.4455L45.578 95.4026L48.9412 91.8225Z" fill="white" fill-opacity="0.1"/>
</g>
<g clip-path="url(#clip3)">
<path d="M18.3892 32.0975C19.4742 30.957 20.5289 29.5675 21.4395 28.0792C23.0314 25.4772 24.1065 22.6973 24.3893 20.452C24.5708 19.0075 25.0412 17.6565 25.7876 16.4367L26.5559 15.1808L26.5836 15.1978C26.7913 15.3249 27.0627 15.2595 27.1898 15.0518L27.5836 14.4081C27.9307 13.8408 27.7515 13.0968 27.1842 12.7497L24.3487 11.0149C23.7814 10.6678 23.0374 10.847 22.6903 11.4143L22.2965 12.058C22.1694 12.2657 22.2348 12.5372 22.4425 12.6642L22.4698 12.681L21.7015 13.9368C20.9547 15.1575 19.9662 16.1915 18.7636 17.0101C16.8941 18.2828 14.9083 20.5057 13.3156 23.1089C12.4051 24.5972 11.6482 26.169 11.1267 27.6543C10.5823 29.2051 9.686 30.5486 8.53466 31.5395C8.11371 31.9015 7.75088 32.3294 7.45611 32.8111C7.28139 33.0967 7.13281 33.3991 7.01433 33.7101C6.78529 34.3128 7.01881 34.9948 7.56948 35.3317L13.1731 38.76C13.7243 39.0972 14.4378 38.9943 14.8687 38.516C15.0914 38.2702 15.2934 38.0002 15.4689 37.7134C15.7636 37.2316 15.9794 36.7137 16.11 36.1743C16.4682 34.698 17.2563 33.2882 18.3892 32.0975ZM14.0678 23.5691C14.8152 22.3474 15.6494 21.2158 16.5134 20.2368L22.5406 23.9243C22.0624 25.1396 21.4346 26.3975 20.6873 27.619C20.6205 27.7282 20.5526 27.8366 20.4843 27.9446L13.8703 23.8982C13.9354 23.7881 14.001 23.6783 14.0678 23.5691ZM25.8037 14.7206L25.4707 15.2649L22.889 13.6854L23.222 13.1411L25.8037 14.7206ZM22.4283 14.4373L25.011 16.0174C24.5323 16.8075 24.16 17.6474 23.8963 18.5285L20.7004 16.5732C21.3644 15.9375 21.9426 15.2235 22.4283 14.4373ZM23.4425 11.8745C23.5358 11.7219 23.7359 11.6737 23.8885 11.7671L26.7239 13.5019C26.8765 13.5952 26.9247 13.7953 26.8314 13.9479L26.6676 14.2154L26.6401 14.1986L23.3063 12.1589L23.2788 12.1421L23.4425 11.8745ZM19.2598 17.7391C19.5184 17.563 19.7675 17.3774 20.0077 17.1832L23.6687 19.423C23.6052 19.7253 23.5534 20.0315 23.5144 20.342C23.4081 21.1858 23.1812 22.113 22.851 23.0805L17.1235 19.5763C17.8346 18.8416 18.5568 18.2176 19.2598 17.7391ZM14.2146 37.9248C14.067 38.0886 13.8226 38.1234 13.6334 38.0077L8.02976 34.5793C7.84057 34.4636 7.76024 34.2297 7.83859 34.0235C7.93757 33.7636 8.06201 33.5105 8.20836 33.2713C8.45516 32.8679 8.75845 32.5101 9.10982 32.2079C10.3782 31.1162 11.3633 29.6426 11.9587 27.9463C12.3338 26.8779 12.8368 25.7613 13.4343 24.6651L19.9999 28.682C19.2959 29.7132 18.5307 30.6693 17.7503 31.4896C16.5111 32.792 15.6476 34.3401 15.2531 35.9664C15.144 36.4167 14.9635 36.8495 14.7167 37.2531C14.5699 37.4931 14.4012 37.7188 14.2146 37.9248Z" fill="white" fill-opacity="0.1"/>
</g>
<g clip-path="url(#clip4)">
<path d="M67.7809 64.2287C68.0785 64.039 68.2941 63.7516 68.3923 63.4102C68.6003 62.6865 68.2151 61.9308 67.5259 61.6641L68.0957 59.6818C68.8212 59.8216 69.5488 59.3857 69.7567 58.6622C69.9677 57.9283 69.5684 57.1614 68.8607 56.9052L69.4472 54.8649C69.4656 54.8698 69.484 54.875 69.5025 54.8793C70.0492 55.0069 70.6211 54.8808 71.0714 54.5334C71.5359 54.1751 71.8115 53.6337 71.8275 53.0482L71.8313 52.9118C71.9205 49.649 69.792 46.7406 66.6551 45.839L58.0546 43.367C54.9177 42.4654 51.5698 43.7997 49.913 46.6119L49.8437 46.7295C49.5463 47.2343 49.4924 47.8394 49.6958 48.3897C49.8929 48.9231 50.3105 49.3336 50.8415 49.5157C50.8594 49.5219 50.8778 49.5273 50.896 49.5329L50.3096 51.5732C49.5739 51.4146 48.8284 51.8525 48.6174 52.5863C48.4095 53.3099 48.7945 54.0655 49.4836 54.3323L48.9139 56.3145C48.5824 56.2503 48.2417 56.3034 47.9414 56.469C47.5979 56.6591 47.3516 56.9725 47.2477 57.3514C47.1533 57.6956 47.1962 58.0476 47.3428 58.3504C46.7211 58.5275 46.2012 59.0114 46.0098 59.6772C45.5185 61.3864 46.5095 63.1767 48.2187 63.668L64.2104 68.2644C65.0384 68.5024 65.9093 68.4038 66.6629 67.9867C67.4169 67.5694 67.9632 66.8836 68.2012 66.0555C68.3918 65.3922 68.2102 64.7088 67.7809 64.2287ZM67.6373 63.1932C67.5887 63.3622 67.4769 63.5025 67.3234 63.5877C67.1688 63.673 66.9905 63.6933 66.8215 63.6447L60.7208 61.8912L61.1732 61.6408C61.9336 61.2199 62.8123 61.1203 63.6475 61.3604L66.9331 62.3047C66.9332 62.3048 66.9332 62.3048 66.9333 62.3048L67.1857 62.3773C67.5351 62.4778 67.7377 62.8437 67.6373 63.1932ZM57.6173 60.0407C57.0948 59.0968 56.236 58.4128 55.1991 58.1148L49.6706 56.5257L49.8315 55.966L66.9335 60.8815L66.7726 61.4413L63.8646 60.6054C62.8277 60.3074 61.7368 60.4311 60.7928 60.9535L58.7488 62.0849L57.6173 60.0407ZM67.1505 60.1264L50.0485 55.2109L50.237 54.5551L67.339 59.4707L67.1505 60.1264L67.1505 60.1264ZM51.6507 49.7509L68.6918 54.649L68.6707 54.7224L67.5322 55.1069C66.8886 55.3242 66.1674 55.1169 65.7374 54.591C65.1016 53.8133 64.0348 53.5067 63.0831 53.8281C62.4396 54.0455 61.7184 53.8382 61.2884 53.3123C60.6526 52.5346 59.5859 52.228 58.6341 52.5494C57.9906 52.7667 57.2693 52.5594 56.8394 52.0335C56.2035 51.2558 55.1368 50.9492 54.1851 51.2706C53.5415 51.4879 52.8203 51.2806 52.3904 50.7548L51.6296 49.8243L51.6507 49.7509ZM51.3657 50.7426L51.7821 51.2519C52.418 52.0297 53.4847 52.3362 54.4364 52.0148C55.08 51.7975 55.8012 52.0048 56.2311 52.5307C56.8671 53.3085 57.9337 53.615 58.8854 53.2936C59.5289 53.0762 60.2501 53.2835 60.6802 53.8095C60.9981 54.1984 61.4236 54.4694 61.8888 54.6031C62.3539 54.7368 62.8586 54.733 63.3344 54.5723C63.9779 54.355 64.6991 54.5623 65.1291 55.0882C65.765 55.866 66.8318 56.1725 67.7834 55.8511L68.4068 55.6406L68.1067 56.6846L51.0656 51.7866L51.3657 50.7426ZM50.4327 48.1174C50.3115 47.7893 50.3435 47.4288 50.5205 47.1283L50.5898 47.0107C52.0647 44.5072 55.0451 43.3194 57.8376 44.122L66.4381 46.594C69.2306 47.3966 71.1254 49.9858 71.0459 52.8902L71.0421 53.0267C71.0326 53.3754 70.8683 53.6979 70.5914 53.9115C70.3288 54.1141 69.9969 54.188 69.6808 54.1142C69.6616 54.1098 51.1153 48.7791 51.0965 48.7727C50.7896 48.6674 50.5477 48.4286 50.4327 48.1174ZM49.3725 52.8033C49.4729 52.4539 49.8388 52.2514 50.1882 52.3518L68.5502 57.6295C68.8996 57.7299 69.1021 58.0959 69.0017 58.4453C68.9013 58.7947 68.5353 58.9972 68.186 58.8968L49.824 53.6191C49.4746 53.5186 49.2721 53.1526 49.3725 52.8033ZM48.3213 57.1565C48.476 57.0712 48.6543 57.051 48.8233 57.0996L49.0761 57.1722L49.0763 57.1723L54.9821 58.8697C55.8173 59.1098 56.5091 59.6607 56.93 60.4211L57.1804 60.8736L48.4851 58.3744C48.1255 58.271 47.9103 57.9053 48.0053 57.5591C48.0528 57.386 48.1652 57.2429 48.3213 57.1565ZM66.2825 67.2994C65.7126 67.6148 65.0538 67.6894 64.4274 67.5094L48.4357 62.913C47.1428 62.5414 46.3932 61.1872 46.7648 59.8942C46.9401 59.2846 47.5785 58.9312 48.1881 59.1064L57.7184 61.8456L58.2515 62.8089C58.3041 62.9038 58.3901 62.9684 58.4867 62.9962C58.5833 63.0239 58.6905 63.0148 58.7854 62.9623L59.7487 62.4292L66.6584 64.4152C67.268 64.5904 67.6214 65.2289 67.4462 65.8385C67.2661 66.4649 66.8528 66.9837 66.2825 67.2994Z" fill="white" fill-opacity="0.1"/>
</g>
<g clip-path="url(#clip5)">
<path d="M79.4888 89.7893C79.5867 89.8561 79.7202 89.8309 79.787 89.7331L80.5179 88.6627C80.5625 88.5973 80.5659 88.516 80.5341 88.4493L80.5343 88.4492L77.1518 81.3699C77.1186 81.3003 77.0507 81.254 76.9738 81.2484L69.1489 80.6752L69.1489 80.6754C69.0752 80.67 69.0007 80.7028 68.956 80.7682L68.2252 81.8385C68.1583 81.9364 68.1835 82.0699 68.2814 82.1367L68.5809 82.3413L68.1838 82.9229L67.6411 82.8832C67.6403 82.8831 67.6394 82.8833 67.6386 82.8833C67.5657 82.879 67.4924 82.9116 67.4483 82.9763L66.7174 84.0467C66.6506 84.1445 66.6758 84.2781 66.7736 84.3449L77.9811 91.9974C78.079 92.0642 78.2125 92.039 78.2793 91.9412L79.0102 90.8708C79.0544 90.8061 79.0581 90.7258 79.0274 90.6595C79.0271 90.6588 79.0269 90.658 79.0266 90.6574L78.7921 90.1665L79.1893 89.5848L79.4888 89.7893ZM76.8182 81.6673L79.8035 87.9151L69.9124 81.1614L76.8182 81.6673ZM69.1894 81.1874L80.0425 88.5979L79.5536 89.3138L68.7006 81.9033L69.1894 81.1874ZM78.3 90.1261L68.4005 83.3666L68.5469 83.1521L78.4465 89.9116L78.3 90.1261V90.1261ZM78.0459 91.522L67.1928 84.1115L67.6817 83.3955L78.5348 90.806L78.0459 91.522ZM78.6884 89.5572L68.7889 82.7978L68.9353 82.5833L78.8349 89.3428L78.6884 89.5572V89.5572Z" fill="white" fill-opacity="0.1"/>
</g>
<g clip-path="url(#clip6)">
<path d="M26.6646 62.1399C26.6717 61.7829 26.5789 61.429 26.3923 61.116C25.9065 60.3007 24.8797 59.962 24.004 60.3281C23.8325 60.3998 23.6742 60.4942 23.5318 60.6096C22.7975 60.4132 21.6602 60.5854 20.806 60.7736C20.4256 60.8574 20.048 60.7283 19.7961 60.4282C19.5477 60.1322 19.4864 59.7439 19.6325 59.3897C19.6445 59.3606 19.6511 59.3487 19.6509 59.3488C19.6509 59.3488 19.6508 59.3489 19.6508 59.3489C19.7068 59.2675 19.7138 59.1621 19.6691 59.0741C19.6244 58.9859 19.5351 58.9293 19.4363 58.9265C18.7845 58.9082 18.129 59.1034 17.5906 59.4764C17.0338 59.862 16.6278 60.407 16.4166 61.0524C16.0958 62.0335 16.2958 63.1148 16.9217 63.9169C16.8191 63.9613 16.72 64.0147 16.6248 64.0772C15.8494 64.5854 15.5498 65.5747 15.9122 66.4295C16.0545 66.765 16.2851 67.049 16.5773 67.2543C15.9385 68.0445 15.8443 69.1755 16.3786 70.0698C16.6867 70.5854 17.1754 70.969 17.7548 71.1501C17.8242 71.1717 17.8942 71.1901 17.9645 71.2055L21.2863 75.9606C21.3501 76.0519 21.4636 76.0947 21.5718 76.068C23.2628 75.652 24.908 75.0386 26.4642 74.2495C28.0204 73.4605 29.4876 72.496 30.8226 71.3778C30.908 71.3062 30.9406 71.1895 30.9046 71.084L29.0322 65.5941C29.0613 65.5282 29.0879 65.4609 29.1114 65.3921C29.3078 64.8178 29.2872 64.1968 29.0533 63.6436C28.6476 62.6841 27.6796 62.0916 26.6646 62.1399ZM18.6585 71.2575C18.948 71.2381 19.2334 71.1677 19.5012 71.0465C19.5303 71.0333 19.559 71.0195 19.5874 71.0053L22.3338 75.3047C22.0975 75.3734 21.8603 75.4387 21.622 75.4994L18.6585 71.2575ZM26.5747 67.0491C26.8548 67.073 27.1366 67.0483 27.4076 66.9774L29.3085 71.8769C29.1017 72.0278 28.8923 72.175 28.6803 72.3188L26.5069 67.2196C26.5304 67.1633 26.5532 67.1066 26.5747 67.0491ZM28.2228 72.6208C28.0118 72.7565 27.7987 72.889 27.5833 73.0176L25.5645 68.6851C25.8015 68.4306 26.0109 68.1512 26.1897 67.8508L28.2228 72.6208ZM27.1149 73.2891C26.8985 73.4113 26.6803 73.5301 26.4599 73.6451L24.4097 69.6014C24.6752 69.4486 24.9236 69.2736 25.1528 69.0785L27.1149 73.2891ZM25.979 73.889C25.756 73.9987 25.5312 74.1046 25.3048 74.2069L23.0679 70.1357C23.3607 70.066 23.6486 69.9691 23.9288 69.8453L25.979 73.889ZM22.5071 70.2351L24.8088 74.4242C24.5777 74.522 24.3449 74.6156 24.1108 74.7056L21.4647 70.2464C21.8127 70.2797 22.1618 70.2759 22.5071 70.2351ZM20.7681 70.1293L23.5968 74.8962C23.3558 74.9821 23.1133 75.064 22.8696 75.1417L20.0404 70.7127C20.2577 70.536 20.4442 70.3233 20.5905 70.0832C20.6495 70.0998 20.7088 70.1149 20.7681 70.1293ZM30.3342 71.0823C30.1444 71.2386 29.9517 71.3913 29.7568 71.5411L27.9115 66.785C27.9397 66.7705 27.9678 66.7555 27.9956 66.7398C28.2517 66.5954 28.4771 66.4068 28.6638 66.1848L30.3342 71.0823ZM28.5565 63.8537C28.7386 64.2846 28.7544 64.769 28.601 65.2177C28.4476 65.6663 28.1385 66.0401 27.7306 66.2701C27.3339 66.4938 26.8875 66.5693 26.4411 66.4878C26.3083 66.4635 26.178 66.5413 26.1362 66.6697C25.7698 67.797 24.9859 68.7129 23.9287 69.2489C22.8717 69.7849 21.6694 69.8759 20.5435 69.5052C20.4731 69.482 20.3993 69.4894 20.3372 69.5209C20.2862 69.5467 20.2432 69.5888 20.2166 69.6436C20.0185 70.0519 19.694 70.3672 19.2788 70.5551C18.8522 70.7482 18.3681 70.7767 17.9155 70.6353C17.4629 70.4938 17.0814 70.1948 16.8415 69.7932C16.3767 69.0152 16.5202 68.0083 17.182 67.395C17.2285 67.3519 17.2633 67.2963 17.2732 67.2337C17.293 67.1085 17.226 66.9922 17.1172 66.9434C16.7978 66.8004 16.5462 66.543 16.4087 66.2188C16.1523 65.6142 16.3723 64.8874 16.9204 64.5281C16.9241 64.5256 16.9279 64.5232 16.9316 64.5208C17.144 64.3843 17.398 64.3287 17.6493 64.3522C17.9536 64.3807 18.4733 64.4006 19.1343 64.3142C19.8145 64.2254 20.7434 64.0068 21.7621 63.4903C22.1905 63.2731 22.635 63.0031 23.0832 62.668C23.2022 62.5791 23.2381 62.4102 23.1524 62.2889C23.0643 62.1644 22.8915 62.1377 22.7703 62.2287C21.3551 63.2895 19.9871 63.6558 19.0885 63.7763C18.3035 63.8816 17.7296 63.8232 17.5309 63.7955C16.8715 63.121 16.635 62.1195 16.9293 61.22C17.2379 60.2768 18.0775 59.6029 19.0432 59.4835C18.9531 59.9384 19.0719 60.4042 19.3831 60.7749C19.7608 61.2248 20.3505 61.4262 20.922 61.3002C22.0976 61.0412 23.0344 60.9912 23.4944 61.1627C23.5939 61.1998 23.7062 61.1805 23.7827 61.1069C23.9067 60.9875 24.0512 60.8928 24.212 60.8255C24.8417 60.5624 25.5569 60.8201 25.9291 61.3919C26.5393 62.3297 25.5165 65.5307 20.6017 66.7433C20.4544 66.7796 20.3657 66.9303 20.4064 67.0774C20.4458 67.2193 20.5977 67.2999 20.7406 67.2645C21.6927 67.0288 22.4889 66.7236 23.1537 66.3866C24.3913 65.759 25.1729 65.0213 25.6523 64.4186C26.2489 63.6686 26.4897 63.0036 26.5783 62.6872C27.4111 62.5977 28.2246 63.0684 28.5565 63.8537Z" fill="white" fill-opacity="0.1"/>
</g>
<g clip-path="url(#clip7)">
<path d="M98.078 110.044C98.3179 110.309 98.6283 110.502 98.9789 110.602C99.8919 110.861 100.871 110.403 101.256 109.535C101.332 109.365 101.382 109.188 101.406 109.006C102.075 108.645 102.784 107.739 103.276 107.016C103.495 106.693 103.858 106.528 104.247 106.573C104.631 106.618 104.942 106.858 105.079 107.216C105.09 107.246 105.094 107.259 105.094 107.259C105.094 107.258 105.094 107.258 105.094 107.258C105.109 107.356 105.176 107.437 105.269 107.471C105.362 107.504 105.466 107.484 105.54 107.418C106.026 106.984 106.369 106.392 106.504 105.751C106.644 105.089 106.565 104.414 106.276 103.799C105.836 102.866 104.948 102.217 103.942 102.063C103.986 101.961 104.022 101.854 104.048 101.743C104.263 100.841 103.801 99.9162 102.951 99.5435C102.617 99.3972 102.255 99.349 101.901 99.4004C101.823 98.3872 101.115 97.5002 100.113 97.2168C99.5347 97.0534 98.916 97.11 98.3704 97.3761C98.3051 97.408 98.2416 97.4427 98.1799 97.4798L92.5001 96.303C92.391 96.2804 92.2792 96.3272 92.2188 96.4209C91.2749 97.8843 90.4998 99.4598 89.91 101.102C89.3201 102.744 88.9155 104.453 88.7126 106.182C88.6996 106.293 88.7561 106.4 88.8546 106.452L93.9851 109.158C94.0091 109.226 94.036 109.293 94.0662 109.359C94.3177 109.912 94.759 110.349 95.3088 110.591C96.2625 111.01 97.3731 110.776 98.078 110.044ZM97.6396 97.9185C97.4424 98.1313 97.2832 98.3784 97.1717 98.6505C97.1597 98.68 97.1482 98.7097 97.1373 98.7396L92.1888 97.499C92.3134 97.2868 92.441 97.0765 92.5726 96.8687L97.6396 97.9185ZM94.773 106.413C94.5529 106.588 94.365 106.8 94.2166 107.037L89.4708 104.78C89.5176 104.528 89.5688 104.277 89.6242 104.027L94.7053 106.243C94.7268 106.3 94.7492 106.357 94.773 106.413ZM89.7495 103.493C89.8098 103.25 89.8737 103.007 89.9421 102.766L94.3844 104.53C94.3868 104.878 94.4263 105.225 94.5025 105.566L89.7495 103.493ZM90.0962 102.247C90.1697 102.01 90.2468 101.773 90.328 101.538L94.5949 103.071C94.5068 103.364 94.4463 103.662 94.4136 103.961L90.0962 102.247ZM90.5103 101.031C90.5971 100.798 90.6879 100.567 90.7823 100.337L95.2038 101.761C95.0387 102.013 94.8958 102.281 94.7771 102.564L90.5103 101.031ZM95.5432 101.304L90.9937 99.8384C91.0945 99.6087 91.1996 99.3808 91.308 99.1546L96.2934 100.58C96.0175 100.795 95.7663 101.037 95.5432 101.304ZM96.8803 100.187L91.5509 98.6631C91.6671 98.4352 91.7872 98.2092 91.9111 97.9854L97.0089 99.2634C96.9722 99.541 96.9826 99.8237 97.0411 100.099C96.9867 100.127 96.9333 100.157 96.8803 100.187ZM89.2706 106.062C89.3013 105.818 89.3365 105.574 89.3754 105.332L93.9823 107.523C93.9717 107.553 93.9617 107.583 93.9522 107.614C93.8652 107.894 93.8307 108.186 93.8474 108.476L89.2706 106.062ZM95.5259 110.097C95.0976 109.909 94.7535 109.567 94.557 109.136C94.3606 108.704 94.3287 108.22 94.4674 107.773C94.6022 107.338 94.8749 106.977 95.2555 106.73C95.3687 106.656 95.4101 106.51 95.3523 106.388C94.8448 105.317 94.7859 104.113 95.1866 102.997C95.5873 101.882 96.3989 100.99 97.472 100.487C97.5391 100.455 97.5878 100.399 97.6113 100.334C97.6306 100.28 97.633 100.22 97.6147 100.162C97.4784 99.7288 97.4979 99.2767 97.6708 98.8551C97.8484 98.4218 98.1809 98.0687 98.607 97.8608C99.0332 97.6529 99.5159 97.6085 99.966 97.7358C100.838 97.9823 101.425 98.8129 101.365 99.7132C101.361 99.7764 101.374 99.8408 101.409 99.8931C101.481 99.9977 101.609 100.036 101.722 99.997C102.052 99.8817 102.412 99.8961 102.735 100.037C103.336 100.301 103.675 100.981 103.523 101.618C103.522 101.622 103.521 101.627 103.52 101.631C103.459 101.876 103.313 102.091 103.114 102.246C102.873 102.435 102.482 102.777 102.06 103.294C101.627 103.825 101.102 104.622 100.715 105.697C100.553 106.149 100.415 106.65 100.319 107.202C100.294 107.348 100.384 107.495 100.529 107.525C100.679 107.555 100.823 107.456 100.849 107.306C101.149 105.563 101.892 104.358 102.463 103.653C102.962 103.038 103.419 102.686 103.582 102.57C104.525 102.608 105.384 103.173 105.788 104.029C106.211 104.927 106.063 105.994 105.443 106.743C105.196 106.351 104.79 106.094 104.31 106.038C103.726 105.97 103.159 106.228 102.83 106.712C102.153 107.708 101.506 108.387 101.054 108.578C100.956 108.62 100.888 108.711 100.883 108.817C100.874 108.989 100.834 109.157 100.764 109.316C100.486 109.94 99.7895 110.243 99.1263 110.083C98.0388 109.82 96.5848 106.791 99.3259 102.535C99.408 102.407 99.3691 102.237 99.2385 102.158C99.1124 102.082 98.9467 102.127 98.867 102.251C98.3366 103.076 97.9672 103.845 97.7153 104.546C97.2462 105.852 97.1844 106.925 97.2496 107.693C97.3307 108.647 97.6122 109.296 97.765 109.587C97.221 110.224 96.3063 110.44 95.5259 110.097Z" fill="white" fill-opacity="0.1"/>
</g>
<g clip-path="url(#clip8)">
<path d="M109.534 21.7086L109.909 20.7792C110.344 20.674 110.724 20.3681 110.904 19.9223C111.083 19.4766 111.022 18.9926 110.781 18.6152L111.183 17.6185L111.608 16.563C112.038 16.5659 112.447 16.3104 112.617 15.8884C114.063 12.2993 112.32 8.20256 108.731 6.75599L106.006 5.65741C102.417 4.21082 98.3198 5.95383 96.8732 9.54289C96.7032 9.96485 96.8204 10.4323 97.1319 10.7281L96.7065 11.7836L96.3047 12.7804C95.8697 12.8855 95.4898 13.1915 95.3101 13.6372C95.1304 14.083 95.192 14.5669 95.4325 14.9443L95.0579 15.8738C94.5848 15.9529 94.1623 16.2689 93.9702 16.7454C93.4814 17.9581 94.0703 19.3423 95.283 19.8311L106.628 24.4038C107.841 24.8926 109.225 24.3036 109.714 23.091C109.906 22.6144 109.821 22.0937 109.534 21.7086ZM105.061 14.8395L105.35 14.1217L108.181 15.2628L107.892 15.9806L105.061 14.8395ZM97.35 11.7317L97.6393 11.0138L104.814 13.9058L104.525 14.6236L97.35 11.7317ZM108.717 15.4787L111.045 16.4169L110.755 17.1347L108.428 16.1965L108.717 15.4787ZM105.79 6.19304L108.515 7.29162C111.809 8.61916 113.409 12.3788 112.081 15.6725C111.978 15.9284 111.686 16.0527 111.43 15.9496L108.665 14.8351L105.298 13.4781L97.6859 10.4099C97.43 10.3068 97.3057 10.0147 97.4089 9.75878C98.7364 6.46509 102.496 4.86549 105.79 6.19304ZM96.937 12.7563L97.1341 12.2673L104.577 15.2672L107.944 16.6242L110.539 17.6704L110.342 18.1594L101.867 14.7433C101.796 14.7146 101.716 14.7154 101.646 14.7454L100.177 15.3701L99.5527 13.9018C99.5228 13.8313 99.466 13.7756 99.395 13.747L96.937 12.7563ZM96.8535 13.3453L99.0682 14.2379L99.7591 15.8619C99.7891 15.9323 99.8458 15.988 99.9169 16.0166C99.9879 16.0453 100.067 16.0445 100.138 16.0145L101.762 15.3236L109.994 18.6417C110.363 18.8492 110.53 19.3037 110.368 19.7064C110.192 20.1441 109.692 20.3566 109.254 20.1802L96.3195 14.9667C95.8819 14.7903 95.6693 14.2908 95.8457 13.8531C96.0081 13.4504 96.444 13.2391 96.8535 13.3453ZM95.6713 15.8966L95.8684 15.4075L109.274 20.8106L109.077 21.2997L106.619 20.309C106.548 20.2803 106.468 20.2811 106.398 20.3111L104.929 20.9357L104.305 19.4675C104.275 19.397 104.218 19.3413 104.147 19.3127L95.6713 15.8966ZM106.844 23.8682L95.4989 19.2955C94.5816 18.9257 94.1361 17.8787 94.5058 16.9613C94.6802 16.5288 95.1739 16.3187 95.6064 16.4931L103.82 19.8037L104.511 21.4276C104.542 21.5009 104.6 21.5547 104.669 21.5823C104.737 21.6099 104.816 21.6114 104.89 21.5802L106.514 20.8893L108.71 21.7745C109.142 21.9488 109.352 22.4425 109.178 22.8751C108.808 23.7924 107.761 24.2379 106.844 23.8682Z" fill="white" fill-opacity="0.1"/>
<path d="M100.807 8.32057C100.875 8.3482 100.954 8.34965 101.028 8.31847L101.833 7.97589C101.98 7.91348 102.048 7.74388 101.986 7.59715C101.923 7.45045 101.754 7.38209 101.607 7.4445L100.802 7.78709C100.655 7.84949 100.587 8.01909 100.649 8.16582C100.68 8.23915 100.738 8.29295 100.807 8.32057Z" fill="white" fill-opacity="0.1"/>
<path d="M103.89 9.56324C103.958 9.59088 104.037 9.59233 104.111 9.56114L104.916 9.21856C105.063 9.15616 105.131 8.98655 105.069 8.83983C105.006 8.69312 104.837 8.62476 104.69 8.68718L103.885 9.02976C103.738 9.09217 103.67 9.26177 103.732 9.40849C103.763 9.48182 103.821 9.53561 103.89 9.56324Z" fill="white" fill-opacity="0.1"/>
<path d="M106.973 10.8058C107.041 10.8334 107.12 10.8349 107.194 10.8037L107.999 10.4611C108.146 10.3987 108.214 10.2291 108.152 10.0824C108.089 9.93568 107.92 9.86731 107.773 9.92973L106.968 10.2723C106.821 10.3347 106.753 10.5043 106.815 10.651C106.846 10.7244 106.904 10.7782 106.973 10.8058Z" fill="white" fill-opacity="0.1"/>
<path d="M110.056 12.0484C110.125 12.076 110.204 12.0774 110.277 12.0463L111.082 11.7037C111.229 11.6413 111.297 11.4717 111.235 11.3249C111.172 11.1782 111.003 11.1099 110.856 11.1723L110.051 11.5149C109.904 11.5773 109.836 11.7469 109.898 11.8936C109.929 11.9669 109.987 12.0207 110.056 12.0484Z" fill="white" fill-opacity="0.1"/>
<path d="M109.616 9.80312C109.647 9.8765 109.705 9.93025 109.774 9.95789C109.842 9.98552 109.921 9.98697 109.995 9.95579C110.142 9.89338 110.21 9.72378 110.147 9.57705L109.805 8.77185C109.742 8.62514 109.573 8.55678 109.426 8.6192C109.279 8.6816 109.211 8.85121 109.273 8.99793L109.616 9.80312Z" fill="white" fill-opacity="0.1"/>
<path d="M106.533 8.56057C106.564 8.63395 106.622 8.6877 106.691 8.71533C106.759 8.74297 106.838 8.74441 106.912 8.71323C107.058 8.65083 107.127 8.48122 107.064 8.3345L106.722 7.52929C106.659 7.38259 106.49 7.31423 106.343 7.37664C106.196 7.43905 106.128 7.60865 106.19 7.75538L106.533 8.56057Z" fill="white" fill-opacity="0.1"/>
<path d="M103.45 7.31801C103.481 7.39139 103.539 7.44514 103.608 7.47278C103.676 7.50041 103.755 7.50186 103.829 7.47068C103.975 7.40827 104.044 7.23867 103.981 7.09195L103.639 6.28674C103.576 6.14003 103.407 6.07167 103.26 6.13409C103.113 6.19649 103.045 6.3661 103.107 6.51282L103.45 7.31801Z" fill="white" fill-opacity="0.1"/>
</g>
<g clip-path="url(#clip9)">
<path d="M20.8813 102.031C20.8725 101.952 20.8309 101.88 20.7665 101.833L20.6413 101.741L21.4331 100.66C21.5168 100.546 21.5038 100.388 21.4027 100.289L20.4302 99.3357L20.776 98.8636C20.8281 98.7926 20.8443 98.7014 20.82 98.6168C20.7957 98.5321 20.7337 98.4636 20.6518 98.4309L19.1244 97.8216C19.0037 97.7735 18.8659 97.813 18.7891 97.9178L17.6835 99.4272L16.9748 98.6638L18.207 96.9818C18.292 96.8657 18.2771 96.7045 18.1722 96.606L17.0034 95.5078C16.9439 95.4517 16.8635 95.4243 16.7822 95.4318C16.701 95.4393 16.627 95.4813 16.5788 95.5471L15.7669 96.6555L14.7905 96.2575L15.3953 95.4318C15.4737 95.3249 15.4678 95.178 15.3812 95.0775L14.3137 93.8403C14.2571 93.7747 14.1735 93.7383 14.0868 93.7418C14.0001 93.7452 13.9197 93.788 13.8684 93.858L12.4754 95.7598L12.3512 95.6689C12.2869 95.6217 12.2057 95.6038 12.1274 95.6193C12.0492 95.6349 11.9811 95.6825 11.9397 95.7507L9.0335 100.531L8.92724 100.454C8.86256 100.406 8.78089 100.388 8.70233 100.404C8.62374 100.42 8.55553 100.468 8.51447 100.537L5.60347 105.414C5.52815 105.54 5.56116 105.703 5.67969 105.789L5.7888 105.869L4.16318 108.544C4.12008 108.615 4.11003 108.701 4.13566 108.78C4.16126 108.858 4.22006 108.922 4.29657 108.954C6.69408 109.958 8.84935 111.536 10.5292 113.52C10.5438 113.537 10.5603 113.552 10.5782 113.565C10.626 113.6 10.684 113.62 10.7443 113.62C10.8272 113.621 10.9063 113.585 10.9609 113.523L13.0203 111.166L13.1295 111.246C13.248 111.333 13.4131 111.316 13.5106 111.206L17.2821 106.96C17.3353 106.9 17.3608 106.82 17.3523 106.74C17.3439 106.661 17.3021 106.588 17.2375 106.541L17.1311 106.463L20.8127 102.25C20.8652 102.19 20.89 102.111 20.8813 102.031ZM20.828 100.523L20.1819 101.405L19.9514 101.236C19.831 101.148 19.6631 101.168 19.5663 101.281L19.2308 101.675C18.8904 102.075 18.4781 102.396 18.0197 102.627L20.0903 99.7999L20.828 100.523ZM20.0994 98.8236L19.8251 99.1981L17.0696 102.96C16.9543 102.984 16.8376 103.003 16.7194 103.017C16.3988 103.055 16.0784 103.052 15.7645 103.011L19.1183 98.4323L20.0994 98.8236ZM17.3407 99.8949L15.1535 102.881C14.8204 102.781 14.5006 102.637 14.2018 102.45L16.6321 99.1317L17.3407 99.8949ZM16.848 96.1432L17.5987 96.8485L13.7425 102.113C13.474 101.885 13.2398 101.623 13.0447 101.336L16.848 96.1432ZM15.42 97.129L12.7367 100.792C12.6037 100.505 12.5043 100.201 12.4435 99.8848C12.4209 99.7674 12.404 99.6495 12.3923 99.5317L14.4437 96.7311L15.42 97.129ZM14.1164 94.4833L14.8021 95.2781L12.4239 98.5247C12.5061 98.0188 12.6876 97.5299 12.9654 97.0856L13.2396 96.6466C13.3186 96.5201 13.2867 96.3542 13.1664 96.2661L12.9348 96.0965L14.1164 94.4834L14.1164 94.4833ZM10.7477 112.902C9.11571 111.05 7.07786 109.557 4.82004 108.559L6.24999 106.207L12.5591 110.829L10.7477 112.902ZM13.257 110.634L6.22535 105.483L8.84314 101.098L16.6486 106.815L13.257 110.634ZM9.49467 100.869L12.2651 96.3117L12.6165 96.5691L12.4825 96.7837C11.883 97.7423 11.6706 98.8818 11.8842 99.9923C12.0975 101.103 12.7173 102.082 13.6294 102.75C14.5416 103.418 15.6625 103.714 16.7856 103.583C17.9086 103.451 18.931 102.905 19.6644 102.044L19.8283 101.852L20.1796 102.109L16.67 106.125L9.49469 100.869L9.49467 100.869Z" fill="white" fill-opacity="0.1"/>
</g>
<g clip-path="url(#clip10)">
<path d="M44.547 2.86431C44.4978 2.84515 44.4428 2.8475 44.3954 2.87081L44.3032 2.91616L43.9117 2.12017C43.8703 2.03608 43.7734 1.99514 43.6843 2.02409L42.827 2.3025L42.656 1.95488C42.6303 1.90256 42.5818 1.8651 42.5247 1.8534C42.4675 1.8417 42.4083 1.85709 42.364 1.89509L41.5382 2.60452C41.473 2.66054 41.454 2.75357 41.4919 2.8307L42.0386 3.94215L41.3734 4.12394L40.7642 2.88534C40.7222 2.79987 40.623 2.75919 40.5331 2.7905L39.5305 3.13961C39.4793 3.15737 39.4385 3.19613 39.418 3.2461C39.3975 3.29607 39.3995 3.35238 39.4233 3.40083L39.8247 4.217L39.2919 4.66785L38.9929 4.05986C38.9541 3.98108 38.8661 3.93949 38.7807 3.95954L37.7275 4.20656C37.6716 4.21966 37.6246 4.25757 37.6001 4.30952C37.5755 4.36145 37.576 4.42175 37.6013 4.47329L38.2901 5.87368L38.1987 5.91864C38.1513 5.94194 38.1159 5.98407 38.101 6.03474C38.0862 6.08541 38.0933 6.14 38.1205 6.1852L40.0346 9.35597L39.9564 9.39446C39.9087 9.41788 39.8732 9.46031 39.8585 9.5113C39.8437 9.5623 39.8512 9.61713 39.879 9.66233L41.8478 12.8653C41.8987 12.9482 42.0043 12.9787 42.0916 12.9358L42.1719 12.8963L43.2426 14.6699C43.271 14.7169 43.3185 14.7492 43.3726 14.7584C43.4268 14.7676 43.4822 14.7526 43.5244 14.7175C44.8482 13.6184 46.4353 12.8379 48.1139 12.4602C48.1285 12.4569 48.1425 12.4519 48.1557 12.4455C48.1909 12.4282 48.2202 12.4001 48.2389 12.3649C48.2647 12.3164 48.2681 12.2591 48.2482 12.2079L47.4969 10.2772L47.5773 10.2376C47.6646 10.1947 47.7049 10.0925 47.6703 10.0015L46.3351 6.48691C46.3163 6.43728 46.2774 6.39793 46.228 6.37847C46.1786 6.35899 46.1233 6.36126 46.0757 6.38468L45.9974 6.4232L44.6543 2.97158C44.6351 2.92239 44.5962 2.88348 44.547 2.86431ZM43.6454 2.43307L43.9649 3.08255L43.7952 3.16602C43.7065 3.20962 43.6666 3.31422 43.7036 3.40579L43.8319 3.72344C43.962 4.04566 44.0239 4.38596 44.0189 4.72579L42.9951 2.64427L43.6454 2.43307ZM42.4251 2.33961L42.5607 2.6154L43.9231 5.38534C43.902 5.46041 43.8775 5.53485 43.8494 5.6084C43.7731 5.80805 43.6731 5.99506 43.5529 6.16679L41.8947 2.79532L42.4251 2.33961ZM42.2079 4.28669L43.2894 6.48538C43.1289 6.65032 42.946 6.79369 42.7445 6.91157L41.5429 4.46845L42.2079 4.28669ZM39.8556 3.4256L40.4996 3.20139L42.4062 7.07792C42.1899 7.16542 41.9647 7.22267 41.7361 7.249L39.8556 3.4256ZM39.9962 4.56571L41.3229 7.26308C41.1139 7.25328 40.9051 7.21836 40.7007 7.15699C40.6248 7.13425 40.5505 7.10802 40.4777 7.07877L39.4635 5.01655L39.9962 4.56571ZM38.0443 4.5195L38.7208 4.36081L39.8966 6.75149C39.625 6.54819 39.3938 6.2918 39.2183 5.9926L39.0448 5.69712C38.9948 5.612 38.8876 5.57986 38.799 5.62342L38.6285 5.7073L38.0443 4.51948L38.0443 4.5195ZM47.8182 12.1425C46.2314 12.5324 44.7308 13.2704 43.4533 14.2894L42.5115 12.7292L47.1573 10.4442L47.8182 12.1425ZM47.257 9.97505L42.0792 12.5217L40.3087 9.64135L46.0562 6.8144L47.257 9.97505ZM40.3742 9.18896L38.5495 6.16624L38.8083 6.03896L38.8931 6.1834C39.2717 6.829 39.8752 7.30301 40.5923 7.51811C41.3092 7.73335 42.0739 7.66995 42.7455 7.3396C43.4172 7.00922 43.9343 6.44221 44.2015 5.74299C44.4688 5.04378 44.4617 4.27645 44.1815 3.58227L44.1188 3.42701L44.3774 3.29979L45.6578 6.59021L40.3742 9.18894L40.3742 9.18896Z" fill="white" fill-opacity="0.1"/>
</g>
<g clip-path="url(#clip11)">
<path d="M107.376 60.5284L106.123 58.9421C106.034 58.8287 105.878 58.7921 105.747 58.8539L105.306 59.0628L104.73 58.3652C104.639 58.2559 104.486 58.2218 104.358 58.2825L95.8221 62.323C95.6938 62.3837 95.6231 62.5237 95.6504 62.6629L95.8245 63.551L95.3832 63.7599C95.2525 63.8218 95.1819 63.9656 95.2129 64.1067L95.6461 66.0807C95.6663 66.173 95.7276 66.251 95.8124 66.2926C95.8972 66.3343 95.9963 66.335 96.0817 66.2945L96.8728 65.9201L98.2546 68.3233L97.9839 68.4514C97.9057 68.4884 97.8465 68.5564 97.8206 68.639C97.7948 68.7215 97.8045 68.8112 97.8476 68.8862L102.489 76.9697C102.57 77.11 102.745 77.1647 102.891 77.0955L103.212 76.9437L104.938 79.9456C105.018 80.0858 105.193 80.1405 105.339 80.0713L112.052 76.8938C112.198 76.8246 112.267 76.6547 112.209 76.5035L110.982 73.2658L111.302 73.1139C111.449 73.0447 111.517 72.8747 111.46 72.7235L108.15 64.0095C108.119 63.9286 108.056 63.8642 107.976 63.8319C107.896 63.7996 107.806 63.8022 107.727 63.8393L107.457 63.9674L106.474 61.3753L107.265 61.0009C107.35 60.9605 107.413 60.8833 107.434 60.7914C107.456 60.6994 107.434 60.6026 107.376 60.5284ZM96.3055 62.7804L104.405 58.9463L104.728 59.3366L96.4029 63.2773L96.3055 62.7804ZM111.528 76.4557L105.333 79.3882L103.774 76.6775L110.419 73.532L111.528 76.4557ZM110.778 72.676L102.885 76.4124L98.5526 68.8684L107.689 64.5435L110.778 72.676ZM106.894 64.2336L98.8169 68.0572L97.4351 65.654L105.911 61.6416L106.894 64.2336ZM96.1685 65.5673L95.8717 64.2149L105.79 59.5202L106.647 60.607L96.1685 65.5673Z" fill="white" fill-opacity="0.1"/>
</g>
<g clip-path="url(#clip12)">
<path d="M82.6906 34.7906L83.8792 34.3973L84.5336 33.0957C84.7875 32.5906 85.4051 32.3863 85.9102 32.6402L86.3938 32.8834L86.4825 32.7069C86.6056 32.4622 86.8166 32.28 87.0766 32.194C87.3367 32.1079 87.6146 32.1283 87.8591 32.2514L88.8302 32.7394L88.6798 29.206C88.6766 29.1311 88.7095 29.0592 88.7683 29.0127C88.827 28.9662 88.9045 28.9507 88.9767 28.9709L92.2237 29.8833C92.3481 29.9182 92.4206 30.0474 92.3857 30.1717C92.3507 30.2961 92.2216 30.3686 92.0972 30.3337L89.1609 29.5086L89.2927 32.606L90.0424 32.358C90.1651 32.3174 90.2974 32.3839 90.338 32.5065C90.3785 32.6292 90.312 32.7615 90.1894 32.8021L90.1113 32.8279L93.0593 43.5313C93.0924 43.6514 93.0255 43.7763 92.9073 43.8155L87.2253 45.6956C87.107 45.7347 86.9788 45.6743 86.9337 45.5582L82.9157 35.2088L82.8376 35.2347C82.715 35.2753 82.5826 35.2087 82.5421 35.0861C82.5015 34.9635 82.568 34.8311 82.6906 34.7906ZM85.7 33.0582C85.4254 32.9201 85.0896 33.0312 84.9515 33.3058L84.5073 34.1894L86.5836 33.5024L85.7 33.0582ZM87.6489 32.6693C87.516 32.6024 87.3649 32.5913 87.2236 32.6381C87.0821 32.6849 86.9674 32.7839 86.9005 32.917L86.8118 33.0935L87.2117 33.2946L88.2256 32.9591L87.6489 32.6693ZM91.6187 40.0627L86.0211 41.9149L86.0805 42.0679L91.6623 40.221L91.6187 40.0627ZM85.8515 41.4783L91.4943 39.6112L90.7607 36.9475L84.8516 38.9028L85.8515 41.4783ZM90.6363 36.496L90.5927 36.3377L84.6227 38.3131L84.6821 38.4662L90.6363 36.496ZM92.5492 43.4412L91.7867 40.6726L86.25 42.5046L87.2893 45.1816L92.5492 43.4412ZM84.4532 37.8765L90.4684 35.8862L89.6665 32.9751L83.3604 35.0617L84.4532 37.8765Z" fill="white" fill-opacity="0.1"/>
</g>
</g>
<defs>
<clipPath id="clip0">
<rect width="118" height="118" fill="white"/>
</clipPath>
<clipPath id="clip1">
<rect width="17.1061" height="17.1061" fill="white" transform="translate(60.8369 4) rotate(27.267)"/>
</clipPath>
<clipPath id="clip2">
<rect width="17.1061" height="17.1061" fill="white" transform="translate(65.1798 98.7124) rotate(133.211)"/>
</clipPath>
<clipPath id="clip3">
<rect width="29.4993" height="29.4993" fill="white" transform="translate(13.1846 4.18494) rotate(31.4586)"/>
</clipPath>
<clipPath id="clip4">
<rect width="23.0898" height="23.0898" fill="white" transform="translate(51.3783 41) rotate(16.0359)"/>
</clipPath>
<clipPath id="clip5">
<rect width="14" height="14" fill="white" transform="translate(72.8945 75) rotate(34.3254)"/>
</clipPath>
<clipPath id="clip6">
<rect width="17.2174" height="17.2174" fill="white" transform="translate(11 62.7859) rotate(-26.8854)"/>
</clipPath>
<clipPath id="clip7">
<rect width="17.2174" height="17.2174" fill="white" transform="translate(109.024 98.8203) rotate(109.758)"/>
</clipPath>
<clipPath id="clip8">
<rect width="17.1545" height="17.1545" fill="white" transform="translate(99.413 3) rotate(21.9522)"/>
</clipPath>
<clipPath id="clip9">
<rect width="18.3664" height="18.3664" fill="white" transform="translate(10.8533 91) rotate(36.2228)"/>
</clipPath>
<clipPath id="clip10">
<rect width="12.1587" height="12.1587" fill="white" transform="translate(35 5.36621) rotate(-26.1902)"/>
</clipPath>
<clipPath id="clip11">
<rect width="20.1138" height="20.1138" fill="white" transform="translate(91 64.6056) rotate(-25.331)"/>
</clipPath>
<clipPath id="clip12">
<rect width="15.3678" height="15.3678" fill="white" transform="matrix(-0.949378 0.314137 0.314137 0.949378 93.8235 27.3251)"/>
</clipPath>
</defs>
</svg>
